<svg width="564" height="381" viewBox="0 0 564 381" fill="none" xmlns="http://www.w3.org/2000/svg">
<g clip-path="url(#clip0_71_47)">
<path d="M360.412 381V332.549C360.412 332.549 379.292 366.899 360.412 381Z" fill="#F1F1F1"/>
<path d="M361.578 380.992L325.89 348.226C325.89 348.226 363.959 357.546 361.578 380.992Z" fill="#F1F1F1"/>
<path d="M564 15.4575H0.240479V283H564V15.4575Z" fill="#E5E5E5"/>
<path d="M547.88 38.3997H16.3613V261.618H547.88V38.3997Z" fill="white"/>
<path d="M563.76 0H0V23.9527H563.76V0Z" fill="#FFC700"/>
<path d="M17.798 16.3715C20.2496 16.3715 22.237 14.3839 22.237 11.932C22.237 9.48008 20.2496 7.49243 17.798 7.49243C15.3463 7.49243 13.3589 9.48008 13.3589 11.932C13.3589 14.3839 15.3463 16.3715 17.798 16.3715Z" fill="white"/>
<path d="M34.6473 16.3715C37.099 16.3715 39.0864 14.3839 39.0864 11.932C39.0864 9.48008 37.099 7.49243 34.6473 7.49243C32.1957 7.49243 30.2083 9.48008 30.2083 11.932C30.2083 14.3839 32.1957 16.3715 34.6473 16.3715Z" fill="white"/>
<path d="M51.4972 16.3715C53.9488 16.3715 55.9363 14.3839 55.9363 11.932C55.9363 9.48008 53.9488 7.49243 51.4972 7.49243C49.0455 7.49243 47.0581 9.48008 47.0581 11.932C47.0581 14.3839 49.0455 16.3715 51.4972 16.3715Z" fill="white"/>
<path d="M103.442 89.2153C102.861 89.2153 102.305 89.4459 101.894 89.8564C101.484 90.2669 101.253 90.8236 101.253 91.4041C101.253 91.9847 101.484 92.5414 101.894 92.9519C102.305 93.3623 102.861 93.5929 103.442 93.5929H163.241C163.822 93.5929 164.378 93.3623 164.789 92.9519C165.199 92.5414 165.43 91.9847 165.43 91.4041C165.43 90.8236 165.199 90.2669 164.789 89.8564C164.378 89.4459 163.822 89.2153 163.241 89.2153H103.442Z" fill="#3F3D56"/>
<path d="M69.6222 119.355C69.0417 119.355 68.485 119.586 68.0746 119.996C67.6642 120.407 67.4336 120.963 67.4336 121.544C67.4336 122.124 67.6642 122.681 68.0746 123.092C68.485 123.502 69.0417 123.733 69.6222 123.733H197.061C197.642 123.733 198.198 123.502 198.609 123.092C199.019 122.681 199.25 122.124 199.25 121.544C199.25 120.963 199.019 120.407 198.609 119.996C198.198 119.586 197.642 119.355 197.061 119.355H69.6222Z" fill="#CCCCCC"/>
<path d="M69.6222 136.769C69.0417 136.769 68.485 137 68.0746 137.41C67.6642 137.821 67.4336 138.377 67.4336 138.958C67.4336 139.538 67.6642 140.095 68.0746 140.506C68.485 140.916 69.0417 141.147 69.6222 141.147H197.061C197.642 141.147 198.198 140.916 198.609 140.506C199.019 140.095 199.25 139.538 199.25 138.958C199.25 138.377 199.019 137.821 198.609 137.41C198.198 137 197.642 136.769 197.061 136.769H69.6222Z" fill="#CCCCCC"/>
<path d="M69.6222 154.183C69.0417 154.183 68.485 154.414 68.0746 154.824C67.6642 155.235 67.4336 155.791 67.4336 156.372C67.4336 156.952 67.6642 157.509 68.0746 157.92C68.485 158.33 69.0417 158.561 69.6222 158.561H197.061C197.642 158.561 198.198 158.33 198.609 157.92C199.019 157.509 199.25 156.952 199.25 156.372C199.25 155.791 199.019 155.235 198.609 154.824C198.198 154.414 197.642 154.183 197.061 154.183H69.6222Z" fill="#CCCCCC"/>
<path d="M69.6222 171.597C69.0417 171.597 68.485 171.828 68.0746 172.238C67.6642 172.649 67.4336 173.205 67.4336 173.786C67.4336 174.366 67.6642 174.923 68.0746 175.334C68.485 175.744 69.0417 175.975 69.6222 175.975H197.061C197.642 175.975 198.198 175.744 198.609 175.334C199.019 174.923 199.25 174.366 199.25 173.786C199.25 173.205 199.019 172.649 198.609 172.238C198.198 171.828 197.642 171.597 197.061 171.597H69.6222Z" fill="#CCCCCC"/>
<path d="M69.6222 189.011C69.0417 189.011 68.485 189.242 68.0746 189.652C67.6642 190.063 67.4336 190.619 67.4336 191.2C67.4336 191.78 67.6642 192.337 68.0746 192.748C68.485 193.158 69.0417 193.389 69.6222 193.389H197.061C197.642 193.389 198.198 193.158 198.609 192.748C199.019 192.337 199.25 191.78 199.25 191.2C199.25 190.619 199.019 190.063 198.609 189.652C198.198 189.242 197.642 189.011 197.061 189.011H69.6222Z" fill="#CCCCCC"/>
<path d="M69.6222 206.425C69.0417 206.425 68.485 206.656 68.0746 207.066C67.6642 207.477 67.4336 208.033 67.4336 208.614C67.4336 209.194 67.6642 209.751 68.0746 210.162C68.485 210.572 69.0417 210.803 69.6222 210.803H197.061C197.642 210.803 198.198 210.572 198.609 210.162C199.019 209.751 199.25 209.194 199.25 208.614C199.25 208.033 199.019 207.477 198.609 207.066C198.198 206.656 197.642 206.425 197.061 206.425H69.6222Z" fill="#CCCCCC"/>
<path d="M490.025 211.74H297.083C295.793 211.738 294.557 211.225 293.645 210.313C292.733 209.401 292.22 208.165 292.219 206.875V93.3678C292.22 92.078 292.733 90.8415 293.645 89.9295C294.557 89.0176 295.793 88.5046 297.083 88.5032H490.025C491.314 88.5046 492.551 89.0176 493.463 89.9295C494.375 90.8415 494.888 92.078 494.889 93.3678V206.875C494.888 208.165 494.375 209.401 493.463 210.313C492.551 211.225 491.314 211.738 490.025 211.74Z" fill="#F1F1F1"/>
<path d="M515.406 237.701H322.464C321.175 237.7 319.938 237.187 319.027 236.275C318.115 235.363 317.602 234.127 317.6 232.837V119.329C317.602 118.04 318.115 116.803 319.027 115.891C319.938 114.979 321.175 114.466 322.464 114.465H515.406C516.696 114.466 517.932 114.979 518.844 115.891C519.756 116.803 520.269 118.04 520.271 119.329V232.837C520.269 234.127 519.756 235.363 518.844 236.275C517.932 237.187 516.696 237.7 515.406 237.701Z" fill="white"/>
<path d="M515.406 239.357H322.464C320.736 239.355 319.079 238.667 317.857 237.445C316.634 236.223 315.947 234.565 315.945 232.837V119.33C315.947 117.601 316.634 115.944 317.857 114.721C319.079 113.499 320.736 112.812 322.464 112.81H515.406C517.135 112.812 518.792 113.499 520.014 114.721C521.236 115.944 521.924 117.601 521.926 119.33V232.837C521.924 234.565 521.236 236.223 520.014 237.445C518.792 238.667 517.135 239.355 515.406 239.357ZM322.464 116.12C321.614 116.121 320.798 116.46 320.196 117.061C319.595 117.663 319.256 118.479 319.255 119.33V232.837C319.256 233.688 319.595 234.503 320.196 235.105C320.798 235.707 321.614 236.045 322.464 236.046H515.406C516.257 236.045 517.073 235.707 517.674 235.105C518.276 234.503 518.614 233.688 518.615 232.837V119.33C518.614 118.479 518.276 117.663 517.674 117.061C517.073 116.46 516.257 116.121 515.406 116.12H322.464Z" fill="#3F3D56"/>
<path d="M418.675 207.917C427.922 207.917 435.418 200.42 435.418 191.172C435.418 181.925 427.922 174.428 418.675 174.428C409.429 174.428 401.933 181.925 401.933 191.172C401.933 200.42 409.429 207.917 418.675 207.917Z" fill="#FF6583"/>
<path d="M450.974 175.064C449.988 174.018 448.803 173.18 447.489 172.599C446.175 172.018 444.758 171.705 443.322 171.68C441.885 171.654 440.458 171.916 439.124 172.45C437.79 172.983 436.576 173.778 435.554 174.788L381.255 229.093C374.3 236.082 367.039 225.393 362.399 221.082C351.241 210.046 339.19 230.74 331.69 236.666H506.181V234.444L450.974 175.064Z" fill="#FFC700"/>
<path d="M235.888 240.89L232.952 200.199L238.225 162.068L223.249 161.056L220.292 203.177L228.647 242.787C227.936 243.771 227.545 244.951 227.53 246.165C227.514 247.379 227.874 248.568 228.56 249.57C229.246 250.572 230.224 251.337 231.362 251.762C232.499 252.186 233.74 252.249 234.914 251.941C236.089 251.633 237.14 250.97 237.923 250.042C238.706 249.114 239.183 247.967 239.29 246.758C239.396 245.548 239.127 244.335 238.518 243.285C237.909 242.235 236.99 241.398 235.888 240.89Z" fill="#9F616A"/>
<path d="M221.338 166.537L224.854 151.316C225.528 148.401 227.29 145.854 229.781 144.197C232.271 142.54 235.301 141.898 238.249 142.403C241.198 142.908 243.841 144.521 245.639 146.913C247.436 149.304 248.251 152.293 247.916 155.265L245.979 172.464L221.338 166.537Z" fill="#CBCBCB"/>
<path d="M249.063 373.462H256.123L259.481 346.226L249.062 346.227L249.063 373.462Z" fill="#9F616A"/>
<path d="M247.262 371.156L261.166 371.156C263.516 371.156 265.77 372.09 267.432 373.751C269.093 375.413 270.027 377.667 270.027 380.017V380.305L247.262 380.306L247.262 371.156Z" fill="#2F2E41"/>
<path d="M284.236 373.23L291.023 371.286L286.754 344.178L276.737 347.048L284.236 373.23Z" fill="#9F616A"/>
<path d="M281.87 371.51L295.237 367.681C297.496 367.034 299.92 367.311 301.975 368.451C304.03 369.591 305.548 371.5 306.195 373.76L306.274 374.036L284.39 380.306L281.87 371.51Z" fill="#2F2E41"/>
<path d="M245.247 363.576L248.531 281.075L240.002 243.739C228.524 224.494 240.906 193.795 241.033 193.487L241.079 193.374L241.199 193.358L271.223 189.29L271.645 190.258C283.389 217.109 286.648 246.909 280.986 275.664L277.861 291.649L293.305 354.011L278.688 361.32L267.474 332.236L259.893 361.993L245.247 363.576Z" fill="#2F2E41"/>
<path d="M237.079 201.138L227.284 172.435C221.194 161.711 225.057 152.19 229.369 146.091C234.026 139.506 234.306 135.813 234.368 135.772L234.418 135.739L247.286 135.349L259.197 147.453C259.946 147.16 266.274 162.756 265.738 163.541L274.056 190.433L237.079 201.138Z" fill="#CBCBCB"/>
<path d="M316.389 206.103L284.123 181.142L259.24 151.773L248.495 162.255L277.895 192.559L312.971 212.763C313.229 213.949 313.847 215.027 314.741 215.849C315.635 216.67 316.761 217.196 317.965 217.353C319.169 217.511 320.392 217.292 321.467 216.728C322.542 216.164 323.416 215.281 323.97 214.201C324.525 213.12 324.732 211.895 324.563 210.693C324.395 209.49 323.859 208.369 323.029 207.483C322.199 206.597 321.116 205.988 319.927 205.741C318.739 205.494 317.503 205.62 316.389 206.103Z" fill="#9F616A"/>
<path d="M245.442 172.875L236.451 160.1C234.729 157.653 234.008 154.641 234.436 151.68C234.863 148.719 236.406 146.034 238.75 144.174C241.093 142.315 244.058 141.422 247.039 141.678C250.019 141.935 252.788 143.322 254.779 145.555L266.297 158.472L245.442 172.875Z" fill="#CBCBCB"/>
<path d="M239.338 131.83C247.778 131.83 254.62 124.987 254.62 116.546C254.62 108.105 247.778 101.263 239.338 101.263C230.899 101.263 224.057 108.105 224.057 116.546C224.057 124.987 230.899 131.83 239.338 131.83Z" fill="#9F616A"/>
<path d="M254.877 108.793H230.611V98.2141C235.937 96.0979 241.149 94.2983 244.3 98.2141C247.105 98.2141 249.795 99.3287 251.779 101.313C253.763 103.296 254.877 105.987 254.877 108.793Z" fill="#2F2E41"/>
<path d="M233.956 95.6776C211.723 95.0704 215.933 131.702 215.933 131.702C215.933 131.702 220.128 132.256 222.042 132.582L224.353 131.281L226.84 132.912C227.982 132.918 229.182 132.896 230.426 132.872L231.566 130.524L234.109 132.83C238.737 132.837 251.297 132.965 251.297 132.965C251.297 132.965 258.867 96.358 233.956 95.6776Z" fill="#2F2E41"/>
<path d="M413.995 380.717H158.84C158.662 380.717 158.492 380.647 158.367 380.521C158.241 380.396 158.17 380.225 158.17 380.048C158.17 379.87 158.241 379.7 158.367 379.574C158.492 379.448 158.662 379.378 158.84 379.378H413.995C414.173 379.378 414.343 379.448 414.469 379.574C414.594 379.7 414.665 379.87 414.665 380.048C414.665 380.225 414.594 380.396 414.469 380.521C414.343 380.647 414.173 380.717 413.995 380.717Z" fill="#CBCBCB"/>
</g>
<defs>
<clipPath id="clip0_71_47">
<rect width="564" height="381" fill="white"/>
</clipPath>
</defs>
</svg>
